<svg xmlns="http://www.w3.org/2000/svg" version="1.1" width="1024" height="1024">
<path d="M0 0 C337.92 0 675.84 0 1024 0 C1024 337.92 1024 675.84 1024 1024 C686.08 1024 348.16 1024 0 1024 C0 686.08 0 348.16 0 0 Z " fill="#FEFEFE" transform="translate(0,0)"/>
<path d="M0 0 C1.16823602 -0.00754134 2.33647204 -0.01508268 3.54010916 -0.02285254 C4.8348209 -0.02607878 6.12953265 -0.02930501 7.46347809 -0.03262901 C8.84401225 -0.03950438 10.22454442 -0.04679284 11.60507441 -0.05446088 C15.41216814 -0.07424088 19.2192617 -0.08759596 23.02638626 -0.09980941 C26.2886768 -0.1110659 29.5509464 -0.12600137 32.81322187 -0.14093252 C63.74437703 -0.28201767 94.67600546 -0.3473561 125.60742188 -0.4002533 C129.63516511 -0.40726236 133.66290812 -0.41438931 137.69065094 -0.42163658 C138.6917434 -0.42343187 139.69283585 -0.42522717 140.72426444 -0.42707686 C156.93559467 -0.45713328 173.14660049 -0.52188959 189.35776109 -0.60032304 C205.99842861 -0.68016886 222.6389282 -0.72593786 239.27978373 -0.73927915 C248.62424475 -0.74768626 257.96813109 -0.77143168 267.31240082 -0.83394814 C275.27224926 -0.88717285 283.23144219 -0.90989794 291.19146341 -0.89283796 C295.25189527 -0.88509434 299.31091813 -0.89185317 303.37112427 -0.93811989 C307.09292244 -0.98019601 310.81233397 -0.98025006 314.53420573 -0.9476897 C316.5091812 -0.94109998 318.48415378 -0.97872038 320.45874548 -1.01820624 C327.2228908 -0.91276404 331.02121564 -0.09680848 336.15141296 4.47078323 C337.63759341 6.00593088 339.1003638 7.56422169 340.53440094 9.14818764 C341.88424175 10.46533405 343.24051899 11.77596586 344.60715485 13.07567787 C345.91112971 14.36665218 347.21235859 15.66040546 348.51096344 16.95678139 C349.55514938 17.99597473 349.55514938 17.99597473 350.62042999 19.05616188 C352.06846934 20.49919689 353.51521235 21.94353387 354.96067047 23.38915443 C357.1842806 25.61054243 359.41582172 27.82376442 361.64768219 30.03685951 C363.0609297 31.44717887 364.47370804 32.85796856 365.88596344 34.26928139 C366.55455383 34.93068626 367.22314423 35.59209114 367.91199493 36.27353859 C368.52038208 36.88500237 369.12876923 37.49646614 369.75559235 38.12645912 C370.29390686 38.66334862 370.83222137 39.20023811 371.38684845 39.75339699 C372.53440094 41.14818764 372.53440094 41.14818764 372.53440094 43.14818764 C373.19440094 43.14818764 373.85440094 43.14818764 374.53440094 43.14818764 C375.96150017 44.59529114 375.96150017 44.59529114 377.62702179 46.60970497 C381.55523621 51.22520092 385.7540545 55.49464847 390.05246735 59.76391029 C390.87451157 60.58449425 391.69655579 61.4050782 392.54351044 62.25052834 C394.31566906 64.0189027 396.08898126 65.78612163 397.86333847 67.55228996 C400.67368035 70.34979476 403.48090092 73.15040962 406.28717804 75.95199013 C412.24160865 81.89537709 418.20028159 87.83450239 424.15940094 93.77318764 C430.60201629 100.19372959 437.04386971 106.61502559 443.48084962 113.04121816 C446.71370607 116.26832102 449.95044607 119.49149818 453.18787384 122.71401405 C454.88377191 124.40627893 456.57952936 126.09868473 458.2751236 127.79125404 C459.04096268 128.5519268 459.80680176 129.31259956 460.59584808 130.09632301 C464.46728687 133.96737846 468.08680807 137.89642257 471.53440094 142.14818764 C473.1788946 143.83673617 474.84674853 145.50277435 476.53440094 147.14818764 C477.54555238 148.15192206 478.55557937 149.15679011 479.56467438 150.16259193 C480.10162933 150.6963192 480.63858429 151.23004646 481.19181061 151.77994728 C483.59380247 154.16852296 485.99310515 156.55979255 488.3923111 158.95116615 C489.65998524 160.2137696 490.92854922 161.47548023 492.19797516 162.7363224 C494.03641594 164.56268376 495.87165191 166.39221207 497.70627594 168.22240639 C498.27602142 168.78699059 498.84576691 169.35157478 499.4327774 169.93326759 C504.45594771 174.95571432 504.45594771 174.95571432 504.65744877 178.01848984 C504.65652698 178.78357801 504.65560518 179.54866619 504.65465546 180.33693886 C504.65603012 181.21476021 504.65740479 182.09258156 504.65882111 182.99700356 C504.65522583 183.96228981 504.65163055 184.92757607 504.64792633 185.92211342 C504.64807236 186.93677681 504.64821838 187.9514402 504.64836884 188.99685097 C504.64767022 192.36242218 504.63988016 195.72793856 504.63205719 199.09350014 C504.63019283 201.42234708 504.62876901 203.75119441 504.62776947 206.08004189 C504.6239457 212.2186942 504.6141166 218.35732297 504.60306549 224.49596596 C504.59284836 230.75633869 504.5882712 237.01671522 504.58322906 243.27709389 C504.57249423 255.56746883 504.55541947 267.85782628 504.53440094 280.14818764 C503.5972525 279.9859269 502.66010406 279.82366615 501.69455719 279.65648842 C498.90405458 279.20764521 496.353035 279.01415355 493.53440094 279.02318764 C492.73002594 279.02060951 491.92565094 279.01803139 491.09690094 279.01537514 C488.22172341 279.16439348 485.37426524 279.67487692 482.53440094 280.14818764 C482.53440094 252.09818764 482.53440094 224.04818764 482.53440094 195.14818764 C470.82584625 195.19459389 459.11729156 195.24100014 447.05393219 195.28881264 C439.64832972 195.3092442 432.24274761 195.32866487 424.83713531 195.34350014 C413.07558988 195.36725035 401.31415893 195.39519624 389.55271149 195.44994545 C380.98754516 195.48979708 372.42247156 195.51561662 363.85721511 195.52454162 C359.32135554 195.52975921 354.78576125 195.54203333 350.24998665 195.57110786 C345.98101713 195.59825055 341.71242225 195.606635 337.44337463 195.60061836 C335.87643587 195.60171912 334.30948463 195.60968003 332.74262047 195.62500954 C330.60254816 195.64492066 328.46388908 195.64012425 326.32378387 195.6292057 C324.52767025 195.63473646 324.52767025 195.63473646 322.69527149 195.64037895 C318.87922187 195.04616718 317.2310525 193.86914605 314.53440094 191.14818764 C313.39180496 187.72039969 313.41141715 185.10170815 313.41414642 181.48542213 C313.41329041 180.80663002 313.41243439 180.12783791 313.41155243 179.42847633 C313.40989451 177.14206777 313.4154253 174.85573211 313.42087555 172.56933022 C313.42118181 170.90692173 313.42104852 169.24451311 313.42051029 167.58210468 C313.4202842 163.12360933 313.42608701 158.66514072 313.43312073 154.20665169 C313.43880868 150.02550101 313.43908347 145.8443569 313.43979645 141.66320229 C313.44504723 129.42902718 313.45900833 117.19485707 313.47190094 104.96068764 C313.49252594 77.63256264 313.51315094 50.30443764 313.53440094 22.14818764 C213.21440094 22.14818764 112.89440094 22.14818764 9.53440094 22.14818764 C9.53440094 206.28818764 9.53440094 390.42818764 9.53440094 580.14818764 C93.68440094 580.14818764 177.83440094 580.14818764 264.53440094 580.14818764 C265.6601592 584.65122068 265.6601592 584.65122068 264.17111969 587.96850014 C263.86110016 588.66846107 263.55108063 589.36842201 263.23166656 590.08959389 C262.89844391 590.81017982 262.56522125 591.53076576 262.22190094 592.27318764 C261.90027985 593.00150795 261.57865875 593.72982826 261.24729156 594.48021889 C258.82859737 599.85399121 258.82859737 599.85399121 256.53440094 602.14818764 C253.91940557 602.36722913 251.40761947 602.45965451 248.78952789 602.46703529 C247.97526777 602.47706959 247.16100765 602.48710388 246.32207298 602.49744225 C243.55561657 602.52879665 240.7892634 602.54555288 238.02268219 602.56225014 C236.01651586 602.58128458 234.01035636 602.60105034 232.0042038 602.62148476 C226.4553749 602.67474364 220.90652522 602.71406737 215.3575592 602.74988747 C211.85323184 602.77314562 208.34894073 602.79948213 204.84464264 602.8267765 C186.84872021 602.96556665 168.85270926 603.05970401 150.85644436 603.13801575 C148.48337152 603.14841118 146.1102999 603.15905413 143.73722839 603.16974831 C120.60981825 603.27352324 97.48250086 603.34378832 74.35489219 603.38266742 C68.36063649 603.3933865 62.36642835 603.41137442 56.37220001 603.43218422 C49.00105236 603.45752268 41.62997971 603.47176013 34.25878698 603.4721266 C30.45398684 603.47255307 26.64935231 603.47778744 22.84459114 603.49577141 C18.68396122 603.51519622 14.52368445 603.51107439 10.36301422 603.50463295 C9.14207219 603.51385088 7.92113016 603.52306881 6.66318989 603.53256607 C-4.06380385 603.47931446 -4.06380385 603.47931446 -8.46559906 600.14818764 C-12.90442866 594.92185417 -13.03600556 590.80012779 -12.97175694 584.25926399 C-12.97787029 583.26306315 -12.98398365 582.26686231 -12.99028227 581.24047357 C-13.00593777 577.88749285 -12.9929932 574.53522971 -12.98026276 571.18224525 C-12.98558551 568.76008095 -12.99264963 566.33791995 -13.00130981 563.91576529 C-13.01609274 558.6418844 -13.01838501 553.36821615 -13.00971222 548.09433746 C-12.99685021 540.25199838 -13.00679594 532.40980377 -13.02121177 524.56747337 C-13.04616228 510.56191197 -13.04803134 496.55641813 -13.03993765 482.55084099 C-13.03286932 470.29445772 -13.03280312 458.0381007 -13.03980064 445.7817173 C-13.04071197 444.13869531 -13.04162273 442.49567332 -13.04253293 440.85265133 C-13.04391604 438.3768811 -13.04530712 435.90111089 -13.04671907 433.42534068 C-13.05970266 410.40368597 -13.06481056 387.38204007 -13.05318546 364.36038399 C-13.05274749 363.49229242 -13.05230952 362.62420086 -13.05185828 361.72980348 C-13.04825132 354.6799344 -13.04441662 347.63006544 -13.04056735 340.58019649 C-13.02571717 313.07499138 -13.03450202 285.56988554 -13.06252289 258.06469154 C-13.09393297 227.17346062 -13.10892662 196.28228848 -13.09872288 165.39104128 C-13.09768607 162.09891352 -13.09669884 158.80678575 -13.09573936 155.51465797 C-13.09536603 154.29871929 -13.09536603 154.29871929 -13.09498516 153.05821618 C-13.0915416 140.80851762 -13.10086447 128.55887089 -13.11651039 116.30918312 C-13.13425667 102.38289457 -13.13444418 88.45673236 -13.11115874 74.53044927 C-13.09863382 66.73311261 -13.0999518 58.93606603 -13.1210396 51.13874624 C-13.13522208 45.32396152 -13.12339715 39.50942246 -13.10124265 33.69465595 C-13.09633357 31.33673806 -13.09994452 28.97878462 -13.11273009 26.62089628 C-13.12881129 23.42575545 -13.11435834 20.23218025 -13.09201145 17.03711128 C-13.10400313 16.11283768 -13.11599481 15.18856407 -13.12834987 14.23628217 C-13.06605183 9.90048517 -12.82789432 7.03642339 -10.05144829 3.59262991 C-6.44397275 0.18242888 -4.84833616 0.02150041 0 0 Z " fill="#052f4a" transform="translate(234.4655990600586,70.8518123626709)"/>
<path d="M0 0 C6.54265973 3.31461778 12.13842404 8.36978334 17.7890625 12.98828125 C21.89332693 16.33355818 26.09493267 19.53914537 30.31640625 22.734375 C36.11729173 27.1503614 41.87744722 31.61235628 47.56640625 36.171875 C48.53694946 36.93842407 48.53694946 36.93842407 49.52709961 37.72045898 C61.27482053 47.2149815 61.27482053 47.2149815 62.15234375 53.14453125 C62.60954606 63.11505858 56.2316454 70.49553069 50.75390625 78.359375 C50.18623535 79.18155518 49.61856445 80.00373535 49.03369141 80.85083008 C47.87302385 82.53154542 46.71076458 84.21116273 45.546875 85.88964844 C43.5568337 88.76169282 41.5780631 91.64134712 39.60083008 94.5222168 C38.25105282 96.48853179 36.89920584 98.4534093 35.546875 100.41796875 C33.77580132 102.9915501 32.00772414 105.56714843 30.2421875 108.14453125 C24.56647294 116.4249971 18.83135163 124.66185824 13.06665039 132.88061523 C9.07638826 138.57391187 5.11967482 144.28868791 1.19213867 150.02539062 C-1.45216249 153.88307139 -4.11576994 157.72638075 -6.796875 161.55859375 C-13.80989067 171.58658309 -20.7345665 181.65970143 -27.49609375 191.859375 C-36.59837894 205.56057085 -36.59837894 205.56057085 -40.74609375 211.484375 C-41.81730469 213.02158203 -41.81730469 213.02158203 -42.91015625 214.58984375 C-45.80610207 218.13558661 -48.98041252 221.22653439 -53.12109375 223.296875 C-59.54833983 223.85094794 -63.78024718 222.96002069 -69.12109375 219.296875 C-71.5362733 217.23481737 -73.84896338 215.08368409 -76.16796875 212.9140625 C-79.59819902 209.87404361 -83.18793412 207.14504819 -86.87109375 204.421875 C-91.96577851 200.65178445 -97.02471275 196.85354206 -101.99609375 192.921875 C-107.45651981 188.60580219 -112.93742916 184.3173824 -118.43359375 180.046875 C-119.16239746 179.48049316 -119.89120117 178.91411133 -120.64208984 178.33056641 C-121.7087085 177.50177979 -121.7087085 177.50177979 -122.796875 176.65625 C-123.50094482 176.1087207 -124.20501465 175.56119141 -124.93041992 174.99707031 C-126.46489782 173.80615266 -128.00172052 172.61825294 -129.5402832 171.43261719 C-130.33265381 170.82063477 -131.12502441 170.20865234 -131.94140625 169.578125 C-132.65699707 169.02705078 -133.37258789 168.47597656 -134.10986328 167.90820312 C-141.62707787 161.88567141 -141.62707787 161.88567141 -142.625 156.65625 C-142.95909807 148.76722466 -140.32360307 143.59178724 -135.1328125 137.83203125 C-134.03110884 136.66841557 -132.92282586 135.5109996 -131.80859375 134.359375 C-130.63597415 133.12179885 -129.46409157 131.88352391 -128.29296875 130.64453125 C-127.73802734 130.06074707 -127.18308594 129.47696289 -126.61132812 128.87548828 C-122.72718951 124.76099937 -119.08764938 120.43294466 -115.421875 116.125 C-114.40527619 114.93201185 -113.38833787 113.73931295 -112.37109375 112.546875 C-111.85627441 111.94319092 -111.34145508 111.33950684 -110.81103516 110.7175293 C-107.43005986 106.77200584 -103.96974519 102.91600049 -100.43359375 99.109375 C-96.26878068 94.61965788 -92.34464913 89.98110824 -88.5 85.21484375 C-82.3517773 77.67342773 -75.9801244 70.30713121 -69.43359375 63.109375 C-66.42294896 59.7960442 -63.55544197 56.40745571 -60.74609375 52.921875 C-57.06472686 48.36826788 -53.19334902 44.06104984 -49.20751953 39.77783203 C-45.42756146 35.69178312 -41.92630432 31.41963233 -38.4375 27.08203125 C-35.46620167 23.50945839 -32.32148592 20.1210057 -29.14990234 16.72680664 C-25.49602335 12.78744821 -22.18238829 8.66103441 -18.97265625 4.35546875 C-13.77554091 -1.42275864 -7.24793514 -2.40263043 0 0 Z " fill="#052f4a" transform="translate(736.12109375,366.703125)"/>
<path d="M0 0 C1.97481441 -0.00958531 3.94948657 -0.04071957 5.92407227 -0.07226562 C26.63233565 -0.15530628 43.59461654 5.9026265 58.82446289 19.99023438 C74.16908396 36.15239673 74.02485055 54.29720837 73.57446289 75.24023438 C58.06446289 75.24023438 42.55446289 75.24023438 26.57446289 75.24023438 C25.58446289 69.96023438 24.59446289 64.68023437 23.57446289 59.24023438 C21.40421888 53.23589262 19.58628697 49.35250029 14.57446289 45.24023438 C8.02199743 43.05607922 -1.60024302 42.89467247 -7.98803711 45.80273438 C-16.87328251 51.35360352 -19.69277519 59.63211284 -22.24560547 69.36767578 C-24.8937657 81.53426289 -24.8814993 93.60004792 -24.81665039 106.01196289 C-24.80058337 109.66720997 -24.81656254 113.3213491 -24.83569336 116.9765625 C-25.32601922 144.4013981 -25.32601922 144.4013981 -14.34741211 168.68164062 C-8.78226459 173.97231658 -4.16759392 175.94324574 3.51196289 176.55273438 C9.27355025 176.3740805 13.81264522 174.57138551 18.38696289 171.11523438 C23.35858042 164.58110848 24.09356383 156.83231149 25.14477539 148.86523438 C25.57446289 146.24023438 25.57446289 146.24023438 26.57446289 145.24023438 C28.04800637 145.14719419 29.5259688 145.12277172 31.00244141 145.12670898 C31.94334122 145.12678452 32.88424103 145.12686005 33.85365295 145.12693787 C34.8765593 145.13209915 35.89946564 145.13726044 36.95336914 145.14257812 C38.51606789 145.14470055 38.51606789 145.14470055 40.1103363 145.14686584 C43.45257383 145.15248358 46.79474546 145.16503907 50.13696289 145.17773438 C52.39672755 145.18274709 54.65649326 145.18731039 56.91625977 145.19140625 C62.4690168 145.20245876 68.02173514 145.21921413 73.57446289 145.24023438 C78.09868541 154.28867941 73.42613281 170.32050175 70.54321289 179.53710938 C64.61414735 195.00075328 54.09840237 205.67572086 39.27758789 212.70117188 C19.24163276 221.35933912 -6.07688096 222.44703042 -26.61694336 214.72851562 C-46.00852722 206.92282934 -59.85789162 193.80943091 -68.23413086 174.51367188 C-75.98456859 153.21902657 -77.64702983 131.10299037 -77.61303711 108.61523438 C-77.61243286 107.87177765 -77.61182861 107.12832092 -77.61120605 106.36233521 C-77.54128969 74.56531036 -73.79943234 43.74459324 -50.67553711 19.92773438 C-36.54049377 6.0272227 -19.5213088 0.05703121 0 0 Z " fill="#052f4a" transform="translate(367.425537109375,241.759765625)"/>
<path d="M0 0 C4.536511 2.50679097 8.34626191 5.63819868 12.3125 8.9375 C17.79884037 13.45197797 23.35346721 17.83317105 29.0625 22.0625 C35.01804533 26.47617307 40.83736021 31.027608 46.60400391 35.68481445 C52.29600478 40.269995 58.11761582 44.66215245 64 49 C63.53851562 49.76699219 63.07703125 50.53398438 62.6015625 51.32421875 C51.41150309 70.36501154 43.61598426 89.90789656 36.98632812 110.89819336 C36.01849566 113.94183481 35.0168677 116.97242997 34 120 C33.195625 120.12375 32.39125 120.2475 31.5625 120.375 C-8.09712731 127.33282935 -41.70955653 147.85696125 -73.13818359 171.92456055 C-84.64778582 180.67555666 -84.64778582 180.67555666 -90.625 181.5 C-94.57454791 180.91488179 -96.20400598 179.79599402 -99 177 C-100.54566479 173.90867042 -100.24233992 171.42436841 -100 168 C-98.99267706 165.53220312 -97.9679055 163.37452913 -96.6875 161.0625 C-95.94558741 159.64642786 -95.2075426 158.22832493 -94.47265625 156.80859375 C-94.07320801 156.04015137 -93.67375977 155.27170898 -93.26220703 154.47998047 C-77.15196029 122.82661753 -65.51410997 89.38149787 -58.12890625 54.67578125 C-57.91484131 53.68296143 -57.70077637 52.6901416 -57.48022461 51.66723633 C-56.89454441 48.81068358 -56.89454441 48.81068358 -56.9140625 45.09375 C-55.63749235 40.77305103 -53.33198359 39.78434526 -49.51147461 37.6262207 C-48.62081299 37.15144287 -47.73015137 36.67666504 -46.8125 36.1875 C-44.97398611 35.1477718 -43.13805608 34.1034619 -41.3046875 33.0546875 C-40.39944336 32.54131836 -39.49419922 32.02794922 -38.56152344 31.49902344 C-24.15634802 23.06900275 -11.55045831 11.95260193 0 0 Z " fill="#052f4a" transform="translate(593,544)"/>
<path d="M0 0 C16.5 0 33 0 50 0 C50 70.95 50 141.9 50 215 C33.5 215 17 215 0 215 C0 144.05 0 73.1 0 0 Z " fill="#052f4a" transform="translate(460,243)"/>
<path d="M0 0 C4.71245559 4.03924765 9.20737218 8.05859627 13.57788086 12.43261719 C14.19337799 13.04475571 14.80887512 13.65689423 15.44302368 14.2875824 C17.45291964 16.28806792 19.45910768 18.29221928 21.46484375 20.296875 C22.86724178 21.69605693 24.26971385 23.09516467 25.67225647 24.49420166 C28.5981403 27.41412157 31.52197403 30.33607684 34.44458008 33.25927734 C38.19794121 37.01274073 41.9581712 40.759242 45.72014523 44.50407028 C48.61190447 47.38474816 51.49914501 50.26992176 54.38510323 53.15641022 C55.77064448 54.54076846 57.15781433 55.92349866 58.54661369 57.30458832 C60.47845549 59.22669496 62.40393246 61.15495795 64.32788086 63.08496094 C64.90598007 63.65744064 65.48407928 64.22992035 66.07969666 64.81974792 C70 68.77167519 70 68.77167519 70 71 C70.57810928 71.24045547 71.15621857 71.48091095 71.75184631 71.72865295 C74.44526522 73.25180068 75.96098586 74.98907144 77.97045898 77.34155273 C83.0127053 83.08180698 88.34718477 88.46293998 93.76695442 93.84211922 C95.51339514 95.57559266 97.25651325 97.31234988 98.99888611 99.0499115 C102.68391423 102.72363537 106.37292942 106.39333899 110.0625 110.0625 C114.37241896 114.34879916 118.68067888 118.63674027 122.98480034 122.92886162 C124.7045615 124.64212981 126.42729569 126.35237019 128.15016174 128.06251526 C129.19278281 129.10150788 130.23526602 130.14063886 131.27758789 131.17993164 C132.19198135 132.08908829 133.10637482 132.99824493 134.04847717 133.93495178 C136 136 136 136 136 137 C91.12 137 46.24 137 0 137 C0 91.79 0 46.58 0 0 Z " fill="#052f4a" transform="translate(569,106)"/>
<path d="M0 0 C1.04873291 -0.02223633 2.09746582 -0.04447266 3.17797852 -0.06738281 C13.94213565 -0.0369732 23.46474675 2.94357587 31.375 10.4375 C40.92217178 20.50542661 40.80189926 32.28521233 40.66796875 45.3828125 C40.66236276 47.00519414 40.65809741 48.62758091 40.65510559 50.24996948 C40.64373564 54.48818362 40.61433764 58.72608175 40.58099365 62.96417236 C40.55012197 67.30159228 40.53656398 71.63906402 40.52148438 75.9765625 C40.48945902 84.46370175 40.43675685 92.95052497 40.375 101.4375 C32.785 101.4375 25.195 101.4375 17.375 101.4375 C16.88 96.9825 16.88 96.9825 16.375 92.4375 C14.9828125 93.79875 14.9828125 93.79875 13.5625 95.1875 C4.51853885 102.76002302 -6.14737197 103.58273123 -17.50244141 102.70361328 C-25.67112035 101.67947479 -32.52390699 97.80371142 -38 91.734375 C-42.8644362 84.85868152 -44.90131301 76.76642922 -43.625 68.4375 C-41.47445831 60.07711013 -37.25204648 53.39050651 -29.92578125 48.71484375 C-15.16218658 40.86022541 -0.00515514 40.22228628 16.375 40.4375 C15.33855109 30.62519878 15.33855109 30.62519878 10.375 22.4375 C2.36415642 18.30983015 -8.42179759 19.45714622 -16.81103516 22.08374023 C-20.99271043 23.52063167 -24.98095853 25.11243415 -28.9296875 27.10546875 C-31.625 28.4375 -31.625 28.4375 -33.625 28.4375 C-33.9633344 26.06311751 -34.29579002 23.68815041 -34.625 21.3125 C-34.72039062 20.64734375 -34.81578125 19.9821875 -34.9140625 19.296875 C-35.46111453 15.31121019 -35.72522182 11.45890062 -35.625 7.4375 C-23.71361197 2.14056221 -12.96484261 0.15596231 0 0 Z " fill="#052f4a" transform="translate(262.625,830.5625)"/>
<path d="M0 0 C2.31731455 1.70196044 4.41569896 3.49024582 6.51171875 5.45703125 C7.14980469 6.05386719 7.78789063 6.65070312 8.4453125 7.265625 C19.0430694 18.2280359 20.75291517 32.80366078 20.6796875 47.33203125 C20.51171875 50.45703125 20.51171875 50.45703125 19.51171875 52.45703125 C-1.93828125 52.45703125 -23.38828125 52.45703125 -45.48828125 52.45703125 C-42.14608421 66.33838857 -42.14608421 66.33838857 -32.48828125 75.45703125 C-23.30264264 80.30036797 -12.46995537 79.59894332 -2.67578125 76.83203125 C3.21353019 74.80575826 8.36659887 71.94131108 13.51171875 68.45703125 C14.04279189 71.20540974 14.56187756 73.955155 15.07421875 76.70703125 C15.22568359 77.48433594 15.37714844 78.26164063 15.53320312 79.0625 C15.67177734 79.81660156 15.81035156 80.57070313 15.953125 81.34765625 C16.08404541 82.03891602 16.21496582 82.73017578 16.34985352 83.44238281 C16.53354619 85.72870556 16.3112237 87.30841506 15.51171875 89.45703125 C1.91119496 98.45802515 -15.79523022 100.21969015 -31.48828125 97.33203125 C-44.91942043 94.13695849 -56.44100806 87.30025959 -63.92578125 75.45703125 C-66.39409197 70.97363071 -68.2107271 66.41100021 -69.48828125 61.45703125 C-69.67132813 60.75191406 -69.854375 60.04679688 -70.04296875 59.3203125 C-72.55113968 43.19321346 -70.72511419 27.58071185 -61.3984375 13.95703125 C-47.13974059 -4.70465796 -21.04067252 -13.04719881 0 0 Z " fill="#052f4a" transform="translate(557.48828125,835.54296875)"/>
<path d="M0 0 C10.68075316 7.9887139 14.56587391 18.09135446 17.38671875 30.78515625 C17.38671875 37.38515625 17.38671875 43.98515625 17.38671875 50.78515625 C-4.39328125 50.78515625 -26.17328125 50.78515625 -48.61328125 50.78515625 C-44.75440706 65.0286223 -44.75440706 65.0286223 -34.80859375 73.70703125 C-24.3649581 78.83593417 -13.28746982 77.66935785 -2.5390625 74.0078125 C0.87981649 72.57909538 3.88238367 70.88245656 6.8984375 68.73828125 C8.38671875 67.78515625 8.38671875 67.78515625 10.38671875 67.78515625 C10.91804264 70.36672993 11.43706254 72.94977381 11.94921875 75.53515625 C12.10068359 76.26476562 12.25214844 76.994375 12.40820312 77.74609375 C13.12494977 81.41316963 13.64873079 84.23827283 12.38671875 87.78515625 C0.57143439 96.2110055 -16.62127165 98.54910887 -30.65478516 96.48486328 C-39.50158601 94.8481113 -47.30611043 92.1772507 -54.61328125 86.78515625 C-55.24492187 86.34558594 -55.8765625 85.90601563 -56.52734375 85.453125 C-66.56694661 77.77968404 -71.68924769 64.96465172 -73.61328125 52.78515625 C-74.54572194 36.41364957 -72.0262201 22.01901643 -61.28515625 8.953125 C-44.70952687 -8.430436 -20.76430742 -13.26699077 0 0 Z " fill="#052f4a" transform="translate(455.61328125,837.21484375)"/>
<path d="M0 0 C7.92 0 15.84 0 24 0 C25.69668207 1.69668207 25.11968993 3.81132018 25.12442017 6.07440186 C25.12082489 6.80016418 25.11722961 7.52592651 25.11352539 8.27368164 C25.11367142 9.03460617 25.11381744 9.7955307 25.1139679 10.57951355 C25.11326862 13.10642298 25.10547555 15.63325962 25.09765625 18.16015625 C25.09579212 19.9075059 25.0943682 21.65485607 25.09336853 23.40220642 C25.08954293 28.01031934 25.07971229 32.61840095 25.06866455 37.22650146 C25.05845134 41.92508521 25.0538711 46.62367399 25.04882812 51.32226562 C25.03809005 60.54819087 25.02101313 69.77409284 25 79 C25.66 79 26.32 79 27 79 C27.22300781 78.45859375 27.44601562 77.9171875 27.67578125 77.359375 C29.4208375 74.25018923 31.75328449 71.82164735 34.1875 69.25 C35.1933307 68.16985004 36.19854041 67.08912149 37.203125 66.0078125 C37.68845703 65.48735352 38.17378906 64.96689453 38.67382812 64.43066406 C40.29051211 62.68659776 41.87206775 60.91517252 43.4375 59.125 C43.99695313 58.51914062 44.55640625 57.91328125 45.1328125 57.2890625 C46.70847016 55.3573985 47.90693312 53.52552144 49.1796875 51.3984375 C51.91869279 47.17953278 54.49814962 43.44093525 59 41 C67.52221995 39.26780862 76.40732186 40.13079845 85 41 C82.51662532 44.86736776 79.94460594 48.32718962 76.8125 51.6875 C73.62660554 55.16443866 70.57930682 58.69935435 67.625 62.375 C63.46215609 67.53282945 59.03109249 72.36249525 54.48046875 77.17578125 C51.99059349 80.01071009 50.01435464 82.82116996 48 86 C48.7528125 86.98355469 49.505625 87.96710938 50.28125 88.98046875 C73.35156066 119.13005006 73.35156066 119.13005006 84 133.25 C84.51054932 133.92361572 85.02109863 134.59723145 85.54711914 135.29125977 C89 139.8839854 89 139.8839854 89 141 C64.81670124 143.98843045 64.81670124 143.98843045 57.46191406 139.42529297 C53.14648849 135.16234396 50.315592 129.99041481 47.48730469 124.66894531 C45.07452818 120.33925509 42.09181374 116.4605938 39.125 112.5 C38.12446409 111.11684936 37.12700035 109.73147054 36.1328125 108.34375 C32.43645204 103.21862179 28.716669 98.11041988 25 93 C24.67 108.84 24.34 124.68 24 141 C16.08 141 8.16 141 0 141 C0 94.47 0 47.94 0 0 Z " fill="#052f4a" transform="translate(836,791)"/>
<path d="M0 0 C1.13542236 0.00539795 2.27084473 0.0107959 3.44067383 0.01635742 C15.32330762 0.23007082 25.45453789 2.62246979 36.3125 7.4375 C35.70205672 15.06804095 33.51628179 22.13939474 31.3125 29.4375 C30.61125 29.09976563 29.91 28.76203125 29.1875 28.4140625 C28.23875 27.96804688 27.29 27.52203125 26.3125 27.0625 C25.384375 26.62164063 24.45625 26.18078125 23.5 25.7265625 C11.30973662 20.79667658 -3.82948668 20.28783688 -16.109375 25.17578125 C-27.65945887 30.8283223 -34.37484058 38.28080061 -38.6875 50.4375 C-40.47786081 56.72245215 -41.04421592 62.73194154 -41 69.25 C-40.99436035 70.1258374 -40.9887207 71.0016748 -40.98291016 71.90405273 C-40.73537485 85.16924907 -37.11062686 96.91664193 -27.9375 106.8125 C-19.80970227 114.39637245 -9.5185283 117.83561992 1.5 117.75 C2.2417749 117.74581055 2.9835498 117.74162109 3.74780273 117.73730469 C13.57854636 117.53765255 21.67228727 114.99324853 30.3125 110.4375 C31.3025 110.4375 32.2925 110.4375 33.3125 110.4375 C34.01168305 113.01817563 34.69711049 115.60122847 35.375 118.1875 C35.57416016 118.91710937 35.77332031 119.64671875 35.97851562 120.3984375 C37.67399838 126.94240604 37.67399838 126.94240604 36.3125 130.4375 C33.50390625 132.0703125 33.50390625 132.0703125 29.875 133.5625 C28.70066406 134.06007813 27.52632813 134.55765625 26.31640625 135.0703125 C9.0587749 141.37615328 -12.9707956 141.03078563 -29.6875 133.4375 C-47.21320306 124.83805829 -58.56868703 111.40666029 -64.875 92.96484375 C-71.08168019 72.73731767 -68.58145901 51.93953227 -59.09912109 33.2253418 C-50.43789135 17.31508191 -35.77849418 7.03775711 -18.6328125 1.82421875 C-12.39507091 0.17488911 -6.42677672 -0.05872473 0 0 Z " fill="#052f4a" transform="translate(172.6875,794.5625)"/>
<path d="M0 0 C8.49908413 5.80341502 12.58122895 12.83810434 14.8125 22.8125 C15.32146363 28.60964077 15.28181967 34.35756021 15.203125 40.171875 C15.19564663 41.81381535 15.18996127 43.45576475 15.18597412 45.09771729 C15.17084306 49.37875864 15.13167283 53.65924031 15.0871582 57.94006348 C15.04593184 62.32454868 15.02790522 66.70912604 15.0078125 71.09375 C14.96516333 79.6669497 14.89491963 88.23959033 14.8125 96.8125 C6.8925 96.8125 -1.0275 96.8125 -9.1875 96.8125 C-9.20208252 94.79447266 -9.21666504 92.77644531 -9.23168945 90.69726562 C-9.28217037 84.0075921 -9.34878876 77.31814805 -9.42321491 70.62870026 C-9.46782113 66.57540398 -9.50709825 62.52220596 -9.53393555 58.46875 C-9.56006646 54.55225927 -9.60053672 50.63614862 -9.65068626 46.71989441 C-9.66728916 45.23053234 -9.67884422 43.74110462 -9.68511391 42.25166321 C-9.31724696 29.93679928 -9.31724696 29.93679928 -14.60346985 19.27233887 C-20.0293732 14.48592389 -24.88589973 14.46188431 -31.82421875 14.5390625 C-38.56200302 15.08684984 -43.22160763 17.38037838 -47.6875 22.4375 C-50.93299308 26.56648842 -51.32530267 29.06842421 -51.39282227 34.37353516 C-51.40767166 35.38346779 -51.40767166 35.38346779 -51.42282104 36.4138031 C-51.45445115 38.64302026 -51.47919934 40.87225874 -51.50390625 43.1015625 C-51.52447448 44.64570678 -51.54547092 46.18984541 -51.56687927 47.73397827 C-51.62211349 51.80114167 -51.67151678 55.86835599 -51.71972656 59.93560791 C-51.76993175 64.08472229 -51.82562293 68.23376259 -51.88085938 72.3828125 C-51.98845748 80.52598077 -52.0893919 88.66921186 -52.1875 96.8125 C-60.4375 96.8125 -68.6875 96.8125 -77.1875 96.8125 C-77.1875 63.8125 -77.1875 30.8125 -77.1875 -3.1875 C-69.5975 -3.1875 -62.0075 -3.1875 -54.1875 -3.1875 C-53.8575 0.4425 -53.5275 4.0725 -53.1875 7.8125 C-51.90875 6.575 -50.63 5.3375 -49.3125 4.0625 C-44.65629745 -0.09351017 -40.12136293 -2.37352118 -34.1875 -4.1875 C-33.58808594 -4.37957031 -32.98867188 -4.57164062 -32.37109375 -4.76953125 C-21.34929604 -6.87924924 -9.76567122 -5.50597844 0 0 Z " fill="#052f4a" transform="translate(801.1875,835.1875)"/>
<path d="M0 0 C3.78168202 3.26282328 6.19963796 7.38262633 6.68359375 12.37109375 C6.79877091 18.28352151 5.89106186 23.28492611 4.13671875 28.9296875 C3.34586183 31.3526084 3.34586183 31.3526084 3.48046875 34.27734375 C13.99550513 33.67070704 22.76740357 28.71622164 31.85546875 23.77734375 C53.43657276 12.12080147 53.43657276 12.12080147 63.48046875 14.27734375 C67.10001368 15.60899629 69.76588286 17.4395534 72.29296875 20.40234375 C73.41953944 23.12983069 73.91678583 25.44742366 74.41796875 28.33984375 C75.00995383 31.65496017 75.34754406 33.10154012 77.41796875 35.83984375 C82.28578986 39.23256756 87.79245021 38.78385804 93.48046875 38.27734375 C99.64050657 36.92334197 105.69807228 35.21376704 111.41796875 32.52734375 C116.28510496 30.54075754 119.89168349 30.77717061 124.85546875 32.33984375 C127.48046875 34.27734375 127.48046875 34.27734375 128.66796875 37.58984375 C128.47803468 41.32521382 127.98741633 43.175261 125.36328125 45.87109375 C112.39766249 55.55495838 92.17786289 58.07941651 76.48046875 56.27734375 C70.77313958 54.9328287 65.54874563 52.58493104 61.48046875 48.27734375 C59.01360951 44.16591168 57.161986 39.76138974 55.48046875 35.27734375 C50.06724249 34.78633148 46.37317589 36.45426443 41.703125 38.92578125 C40.97355087 39.29837067 40.24397675 39.67096008 39.49229431 40.05484009 C37.16982071 41.2426868 34.85602945 42.44628396 32.54296875 43.65234375 C30.23252122 44.84919176 27.92036059 46.04236552 25.60435486 47.22842407 C24.16725224 47.96514731 22.73340111 48.70826097 21.30348206 49.45883179 C12.81054661 53.83120539 4.99573235 55.06210776 -4.51953125 54.27734375 C-9.31237229 52.67973007 -11.7720613 50.49667259 -14.51953125 46.27734375 C-19.1625164 36.77027892 -14.44112364 25.70797222 -11.51953125 16.27734375 C-38.80854952 14.36232492 -67.21395302 34.10632532 -88.47094727 48.93969727 C-92.96912417 51.87683364 -96.02897107 52.95162307 -101.51953125 52.27734375 C-104.51953125 50.15234375 -104.51953125 50.15234375 -106.51953125 47.27734375 C-106.81689676 43.93198172 -106.13936886 42.13483287 -104.18041992 39.42480469 C-99.83276239 34.31348045 -95.32152566 30.77389518 -89.58203125 27.33984375 C-88.74357666 26.82752197 -87.90512207 26.3152002 -87.04125977 25.78735352 C-85.33693784 24.75229247 -83.62823487 23.72440776 -81.91503906 22.70410156 C-79.81127527 21.45110568 -77.72329624 20.17580143 -75.63671875 18.89453125 C-57.72541461 8.14014513 -21.00450628 -13.02928535 0 0 Z " fill="#052f4a" transform="translate(644.51953125,691.72265625)"/>
<path d="M0 0 C91.41 0 182.82 0 277 0 C277 5.94 277 11.88 277 18 C185.59 18 94.18 18 0 18 C0 12.06 0 6.12 0 0 Z " fill="#052f4a" transform="translate(296,498)"/>
<path d="M0 0 C0.99 0 1.98 0 3 0 C3.27880005 1.30650513 3.27880005 1.30650513 3.56323242 2.6394043 C4.27250746 5.93835287 4.9912593 9.23496018 5.71606445 12.53051758 C6.02509268 13.94442973 6.33056121 15.35912565 6.63208008 16.7746582 C10.12919593 33.16629771 14.33394735 48.13827467 28.515625 58.44140625 C37.85894206 64.30301554 48.19686442 66.37824036 58.84570312 68.54052734 C62.25495388 69.26765902 65.62384541 70.13304628 69 71 C69 71.99 69 72.98 69 74 C68.34104736 74.12528076 67.68209473 74.25056152 67.00317383 74.37963867 C40.1013027 78.93935534 40.1013027 78.93935534 18.6875 94.75 C12.97437742 103.3402971 10.04025846 112.57115591 7.8125 122.5625 C7.56564453 123.62146484 7.31878906 124.68042969 7.06445312 125.77148438 C5.58890106 132.1576737 4.24497654 138.56507798 3 145 C2.01 145 1.02 145 0 145 C-0.1858667 144.1342334 -0.3717334 143.2684668 -0.56323242 142.37646484 C-1.27338139 139.09074014 -1.99203153 135.80709618 -2.71606445 132.52441406 C-3.02469954 131.11725545 -3.33016289 129.70939652 -3.63208008 128.30078125 C-7.8826116 108.05788799 -7.8826116 108.05788799 -19 91 C-19.53367187 90.43796875 -20.06734375 89.8759375 -20.6171875 89.296875 C-29.27778187 81.09210138 -40.84204804 78.83424303 -52.1875 76.6875 C-53.53474986 76.42246458 -54.88175761 76.15619537 -56.22851562 75.88867188 C-59.48351764 75.24700481 -62.74039079 74.61775497 -66 74 C-66 73.01 -66 72.02 -66 71 C-64.77651855 70.72905518 -64.77651855 70.72905518 -63.52832031 70.45263672 C-60.43891045 69.76051447 -57.35315018 69.0542181 -54.26904297 68.33886719 C-52.30286991 67.88714665 -50.33310214 67.45116329 -48.36328125 67.015625 C-34.72495441 63.83104107 -21.71683396 58.83416552 -13.84375 46.66796875 C-8.28708508 36.83201842 -5.76898797 26.40459164 -3.50390625 15.41894531 C-2.79040531 11.99386426 -1.98881091 8.59307138 -1.1875 5.1875 C-0.79086392 3.45851729 -0.39465779 1.72943535 0 0 Z " fill="#052f4a" transform="translate(738,51)"/>
<path d="M0 0 C73.26 0 146.52 0 222 0 C222 6.27 222 12.54 222 19 C148.74 19 75.48 19 0 19 C0 12.73 0 6.46 0 0 Z " fill="#052f4a" transform="translate(296,555)"/>
<path d="M0 0 C70.62 0 141.24 0 214 0 C214 5.94 214 11.88 214 18 C143.38 18 72.76 18 0 18 C0 12.06 0 6.12 0 0 Z " fill="#052f4a" transform="translate(296,165)"/>
<path d="M0 0 C8.25 0 16.5 0 25 0 C25 44.55 25 89.1 25 135 C16.75 135 8.5 135 0 135 C0 90.45 0 45.9 0 0 Z " fill="#052f4a" transform="translate(679,797)"/>
<path d="M0 0 C1.13598633 0.00483398 1.13598633 0.00483398 2.29492188 0.00976562 C3.47344727 0.02233398 3.47344727 0.02233398 4.67578125 0.03515625 C5.47306641 0.03966797 6.27035156 0.04417969 7.09179688 0.04882812 C9.05732382 0.06059775 11.0228121 0.07853277 12.98828125 0.09765625 C13.08407509 8.1762704 13.11341758 16.08105991 11.98828125 24.09765625 C10.81265625 23.85015625 10.81265625 23.85015625 9.61328125 23.59765625 C1.56701712 22.48782671 -5.18760096 22.15815006 -12.01171875 27.09765625 C-16.23308454 31.01826315 -18.75372666 35.32478552 -19.29019165 41.09065247 C-19.30351532 42.19873764 -19.31683899 43.30682281 -19.33056641 44.44848633 C-19.3504361 45.70941605 -19.37030579 46.97034576 -19.39077759 48.26948547 C-19.40265212 49.63538437 -19.41431508 51.00128512 -19.42578125 52.3671875 C-19.44450326 53.77252832 -19.46407744 55.17785803 -19.48446655 56.58317566 C-19.53568492 60.27051219 -19.57536541 63.95788512 -19.61260986 67.64538574 C-19.65271434 71.41276987 -19.70377719 75.18000391 -19.75390625 78.94726562 C-19.8505436 86.33063377 -19.9339734 93.71406058 -20.01171875 101.09765625 C-28.26171875 101.09765625 -36.51171875 101.09765625 -45.01171875 101.09765625 C-45.01171875 68.09765625 -45.01171875 35.09765625 -45.01171875 1.09765625 C-37.75171875 1.09765625 -30.49171875 1.09765625 -23.01171875 1.09765625 C-22.68171875 5.05765625 -22.35171875 9.01765625 -22.01171875 13.09765625 C-21.02171875 11.86015625 -20.03171875 10.62265625 -19.01171875 9.34765625 C-14.09388569 3.70014471 -7.64388504 -0.05747282 0 0 Z " fill="#052f4a" transform="translate(365.01171875,830.90234375)"/>
<path d="M0 0 C0.10466648 8.07094823 0.03387512 15.9874678 -1 24 C-2.05058594 23.88140625 -3.10117187 23.7628125 -4.18359375 23.640625 C-15.65537004 22.45461801 -15.65537004 22.45461801 -26 27 C-31.94124694 32.45952422 -34.18398199 40.71998046 -34.54589844 48.55126953 C-34.58671646 50.99486789 -34.60695138 53.43887445 -34.609375 55.8828125 C-34.62591125 57.17822968 -34.64244751 58.47364685 -34.65948486 59.80831909 C-34.70279218 63.21782399 -34.72307477 66.62707347 -34.73822021 70.0368042 C-34.7579252 73.52989583 -34.79987902 77.02271682 -34.83984375 80.515625 C-34.91474771 87.34367391 -34.96321679 94.17164025 -35 101 C-42.92 101 -50.84 101 -59 101 C-59 68 -59 35 -59 1 C-51.74 1 -44.48 1 -37 1 C-36.34 4.96 -35.68 8.92 -35 13 C-34.071875 11.783125 -33.14375 10.56625 -32.1875 9.3125 C-23.16134974 -0.79032822 -12.58988804 -0.66417932 0 0 Z " fill="#052f4a" transform="translate(654,831)"/>
<path d="M0 0 C0.33 0 0.66 0 1 0 C1.09348908 16.32469694 1.16400149 32.64930689 1.20724869 48.97420692 C1.22786389 56.55434754 1.25596436 64.1343217 1.30175781 71.71435547 C1.34165774 78.32201035 1.36744039 84.92954467 1.37635398 91.53731668 C1.38156347 95.03534075 1.39378531 98.53301996 1.42292023 102.03093338 C1.45519976 105.93816791 1.45595737 109.84506668 1.45410156 113.75244141 C1.47567322 115.4873735 1.47567322 115.4873735 1.49768066 117.25735474 C1.46571045 123.46941364 1.23596351 127.30795738 -3 132 C-6.58679262 134.500101 -9.61209662 134.24960211 -13.80859375 133.67578125 C-17.65230548 132.49046551 -18.88915397 130.36416087 -21 127 C-22.28612563 122.9060478 -22.14767516 118.81492693 -22.14526367 114.56298828 C-22.14862228 113.71372772 -22.1519809 112.86446716 -22.15544128 111.98947144 C-22.16493713 109.18307023 -22.16689372 106.37672877 -22.16796875 103.5703125 C-22.17118229 101.61742122 -22.17454644 99.66453018 -22.17805481 97.7116394 C-22.18404266 93.61781252 -22.18589506 89.52400674 -22.18530273 85.43017578 C-22.18520113 80.18901641 -22.19885274 74.94799257 -22.21607494 69.70686531 C-22.22720316 65.67307923 -22.22922169 61.63932583 -22.22869301 57.60552597 C-22.2298719 55.67346606 -22.23428862 53.74140528 -22.24202538 51.8093605 C-22.25184172 49.10474451 -22.2489407 46.40042167 -22.24291992 43.69580078 C-22.24853943 42.90079163 -22.25415894 42.10578247 -22.25994873 41.28668213 C-22.22629234 35.32558099 -21.22070422 30.33132224 -17.71484375 25.37109375 C-17.27060059 24.73429688 -16.82635742 24.0975 -16.36865234 23.44140625 C-15.89637207 22.78011719 -15.4240918 22.11882813 -14.9375 21.4375 C-13.94915794 20.02999062 -12.96087769 18.62243783 -11.97265625 17.21484375 C-11.47652832 16.51343262 -10.98040039 15.81202148 -10.46923828 15.08935547 C-9.06528006 13.09283262 -7.68256829 11.08364836 -6.30859375 9.06640625 C-5.89681885 8.46320557 -5.48504395 7.86000488 -5.06079102 7.23852539 C-3.93373579 5.58611439 -2.80671082 3.93368276 -1.6796875 2.28125 C-1.12539063 1.5284375 -0.57109375 0.775625 0 0 Z " fill="#052f4a" transform="translate(738,538)"/>
<path d="M0 0 C42.57 0 85.14 0 129 0 C129 6.27 129 12.54 129 19 C86.43 19 43.86 19 0 19 C0 12.73 0 6.46 0 0 Z " fill="#052f4a" transform="translate(538,373)"/>
<path d="M0 0 C42.57 0 85.14 0 129 0 C129 5.94 129 11.88 129 18 C86.43 18 43.86 18 0 18 C0 12.06 0 6.12 0 0 Z " fill="#052f4a" transform="translate(538,316)"/>
<path d="M0 0 C29.7 0 59.4 0 90 0 C90 6.27 90 12.54 90 19 C60.3 19 30.6 19 0 19 C0 12.73 0 6.46 0 0 Z " fill="#052f4a" transform="translate(538,431)"/>
<path d="M0 0 C2.85197698 2.26480525 5.21209524 4.42983334 6.21875 7.953125 C6.77541496 12.8835861 6.83825376 14.91395741 4.28125 19.203125 C2.06306196 21.5552399 -0.01973445 22.55172256 -3.02734375 23.671875 C-8.17200944 25.88246133 -11.27758768 29.02392843 -14.90625 33.203125 C-15.51315674 33.87770752 -16.12006348 34.55229004 -16.74536133 35.24731445 C-18.43925274 37.13643557 -20.11351955 39.04091615 -21.78125 40.953125 C-22.46316406 41.72527344 -23.14507813 42.49742187 -23.84765625 43.29296875 C-24.91045581 44.50430415 -25.96795928 45.72031135 -27.01953125 46.94140625 C-30.19340135 50.56567034 -33.47678175 54.09117908 -36.7421875 57.6328125 C-38.41848801 59.4518441 -40.07443675 61.28450196 -41.71362305 63.13720703 C-47.84271745 70.04651877 -54.28913517 76.57798635 -60.84375 83.078125 C-61.91104417 84.14038706 -62.97810278 85.20288583 -64.04492188 86.265625 C-66.62099925 88.83084859 -69.20021071 91.3928928 -71.78125 93.953125 C-71.78125 90.55396332 -71.31958636 89.95843591 -69.359375 87.3203125 C-68.83472656 86.60552734 -68.31007813 85.89074219 -67.76953125 85.15429688 C-66.90908203 84.0028418 -66.90908203 84.0028418 -66.03125 82.828125 C-64.82725454 81.19074387 -63.62414907 79.552708 -62.421875 77.9140625 C-61.81021484 77.08358398 -61.19855469 76.25310547 -60.56835938 75.39746094 C-57.92527906 71.78236257 -55.35150733 68.12017503 -52.78125 64.453125 C-47.07937577 56.34481714 -41.28231582 48.30744075 -35.46630859 40.28076172 C-33.70030423 37.84131147 -31.93760337 35.3995035 -30.17578125 32.95703125 C-29.58659912 32.14032959 -28.99741699 31.32362793 -28.39038086 30.48217773 C-27.26209949 28.91802363 -26.13399748 27.35374012 -25.00610352 25.78930664 C-24.49619873 25.08281982 -23.98629395 24.37633301 -23.4609375 23.6484375 C-23.01476074 23.02984863 -22.56858398 22.41125977 -22.10888672 21.77392578 C-21.14371518 20.45023153 -20.14349828 19.15187369 -19.12329102 17.87011719 C-17.39159748 15.3965393 -17.5893915 14.04718237 -17.84375 11.078125 C-17.99457877 6.20851042 -17.12664455 3.67023005 -13.78125 -0.046875 C-9.83376718 -3.28945018 -4.20467665 -2.47116961 0 0 Z " fill="#F9FBFC" transform="translate(584.78125,612.046875)"/>
<path d="M0 0 C73.26 0 146.52 0 222 0 C222 6.27 222 12.54 222 19 C148.74 19 75.48 19 0 19 C0 12.73 0 6.46 0 0 Z M2 2 C2 6.95 2 11.9 2 17 C74.27 17 146.54 17 221 17 C220.67 12.05 220.34 7.1 220 2 C148.06 2 76.12 2 2 2 Z " fill="#052f4a" transform="translate(296,555)"/>
<path d="M0 0 C1.09731445 0.00676758 1.09731445 0.00676758 2.21679688 0.01367188 C3.99873419 0.02531852 5.78062863 0.04324809 7.5625 0.0625 C7.66959759 8.54105906 7.45792958 16.391356 1.5625 23.0625 C-4.84820207 27.10318494 -10.88495015 28.77256879 -18.4375 28.0625 C-21.93134502 26.83318416 -23.83329206 25.72712873 -26.3125 23 C-28.31313781 17.7761124 -28.22902332 12.48983819 -26.5 7.1875 C-19.57325875 0.0508575 -9.33931442 -0.11108059 0 0 Z " fill="#FBFCFD" transform="translate(271.4375,886.9375)"/>
<path d="M0 0 C6.02188023 6.18035076 6 10.17147814 6 19 C-7.53 19 -21.06 19 -35 19 C-33.93854245 11.56979717 -32.640302 6.10820795 -26.80859375 1.12890625 C-17.99053341 -4.92897046 -9.13619097 -6.25321515 0 0 Z " fill="#FBFCFD" transform="translate(547,852)"/>
<path d="M0 0 C7.45933788 6.89988754 6.75910946 8.99671149 8.5 20.3125 C-5.03 20.3125 -18.56 20.3125 -32.5 20.3125 C-31.48806153 12.21699222 -29.99014225 7.32825376 -23.91015625 1.890625 C-17.17078769 -2.84236666 -7.34341977 -3.54057739 0 0 Z " fill="#FCFDFD" transform="translate(440.5,850.6875)"/>
<path d="M0 0 C2.83760198 2.15059713 4.68992997 3.5729008 5.46120644 7.12270546 C5.61561153 9.79795383 5.61808813 12.43514052 5.56762695 15.11450195 C5.56872215 16.63715416 5.56872215 16.63715416 5.56983948 18.19056702 C5.56636059 21.54035172 5.52748327 24.88873994 5.48828125 28.23828125 C5.47895425 30.56283305 5.4718376 32.88739469 5.46684265 35.21195984 C5.44776428 41.32617391 5.39865514 47.43979283 5.34332275 53.55377197 C5.29214904 59.79422962 5.26933255 66.03478357 5.24414062 72.27539062 C5.19053812 84.51718838 5.10521428 96.75854467 5 109 C4.06285156 108.83773926 3.12570312 108.67547852 2.16015625 108.50830078 C-0.63034636 108.05945758 -3.18136594 107.86596592 -6 107.875 C-6.804375 107.87242187 -7.60875 107.86984375 -8.4375 107.8671875 C-11.31267752 108.01620585 -14.1601357 108.52668928 -17 109 C-17 80.95 -17 52.9 -17 24 C-69.8 24 -122.6 24 -177 24 C-173.43412262 21.62274841 -171.91711257 21.75076379 -167.68563843 21.75276184 C-167.042663 21.75034743 -166.39968757 21.74793301 -165.73722804 21.74544543 C-163.57911043 21.73980203 -161.42128798 21.74847611 -159.26318359 21.75708008 C-157.71758443 21.75600737 -156.17198566 21.75406886 -154.62638855 21.75132751 C-150.42618016 21.74647498 -146.22607781 21.75413934 -142.02588224 21.76428056 C-137.63677303 21.77305176 -133.24766722 21.77130381 -128.85855103 21.7709198 C-121.48934144 21.77185669 -114.120173 21.78054508 -106.75097656 21.79418945 C-98.21957215 21.80992688 -89.68821278 21.81518717 -81.15679491 21.8144539 C-72.96140247 21.81384454 -64.76602477 21.81894084 -56.57063675 21.82724571 C-53.07702138 21.8307848 -49.58341123 21.83260985 -46.08979416 21.83313942 C-41.98093059 21.8341406 -37.87210516 21.84021865 -33.76325417 21.85030556 C-32.25109528 21.85323745 -30.73893201 21.85445454 -29.2267704 21.85387802 C-27.17130759 21.85339072 -25.11584639 21.8596362 -23.06039429 21.86628723 C-21.33096368 21.868801 -21.33096368 21.868801 -19.56659508 21.87136555 C-17 22 -17 22 -16 23 C-15.90490441 25.61688441 -15.87444 28.207289 -15.88647461 30.82446289 C-15.88632858 31.64390884 -15.88618256 32.4633548 -15.8860321 33.30763245 C-15.88673148 36.02933353 -15.89452499 38.75096705 -15.90234375 41.47265625 C-15.90420784 43.35452741 -15.90563179 45.23639906 -15.90663147 47.11827087 C-15.91045733 52.08148529 -15.92028819 57.04467064 -15.93133545 62.00787354 C-15.9415481 67.06839606 -15.94612878 72.12892327 -15.95117188 77.18945312 C-15.9619104 87.12631488 -15.97898764 97.06315503 -16 107 C-15.01 106.67 -14.02 106.34 -13 106 C-10.64738643 105.90488839 -8.29203033 105.87013024 -5.9375 105.875 C-4.06384766 105.87113281 -4.06384766 105.87113281 -2.15234375 105.8671875 C1 106 1 106 3 107 C2.91565043 93.78710677 2.82078783 80.57433497 2.71247292 67.36161518 C2.6625099 61.22653277 2.61617968 55.09146758 2.578125 48.95629883 C2.54127254 43.03642714 2.49491235 37.11669951 2.44193649 31.19695091 C2.42339241 28.93753777 2.40828451 26.67809374 2.39665604 24.41863441 C2.37979411 21.25590868 2.35075858 18.0935129 2.31884766 14.9309082 C2.31668747 13.99510925 2.31452728 13.0593103 2.31230164 12.09515381 C2.25469506 7.63091735 2.1136846 4.05305522 0 0 Z " fill="#052f4a" transform="translate(734,242)"/>
<path d="M0 0 C4.269375 -0.0309375 4.269375 -0.0309375 8.625 -0.0625 C9.95265381 -0.07615601 9.95265381 -0.07615601 11.30712891 -0.09008789 C15.65478226 -0.10525526 19.71953071 0.12035663 24 1 C24 1.33 24 1.66 24 2 C16.74 2 9.48 2 2 2 C2 7.61 2 13.22 2 19 C1.34 19 0.68 19 0 19 C0 12.73 0 6.46 0 0 Z " fill="#052f4a" transform="translate(296,555)"/>
<path d="M0 0 C7.26 0 14.52 0 22 0 C22 4.29 22 8.58 22 13 C21.67 13 21.34 13 21 13 C20.67 9.37 20.34 5.74 20 2 C13.73 2 7.46 2 1 2 C0.67 1.34 0.34 0.68 0 0 Z " fill="#0B336E" transform="translate(320,832)"/>
<path d="M0 0 C8.58 0 17.16 0 26 0 C23 3 23 3 20.5480957 3.2487793 C19.12630005 3.16237183 19.12630005 3.16237183 17.67578125 3.07421875 C16.64775391 3.01943359 15.61972656 2.96464844 14.56054688 2.90820312 C12.95276367 2.79895508 12.95276367 2.79895508 11.3125 2.6875 C10.22904297 2.62626953 9.14558594 2.56503906 8.02929688 2.50195312 C5.35171622 2.3486115 2.67584718 2.18075343 0 2 C0 1.34 0 0.68 0 0 Z " fill="#052f4a" transform="translate(895,832)"/>
<path d="M0 0 C2.00720923 0.28674418 4.0085944 0.61866701 6 1 C6 1.99 6 2.98 6 4 C3.43850372 4.50567729 0.87600535 5.00470132 -1.6875 5.5 C-2.7693457 5.71462891 -2.7693457 5.71462891 -3.87304688 5.93359375 C-7.63841359 6.65571887 -11.14473813 7.1824976 -15 7 C-11.15627809 5.00198139 -7.17904701 3.46771224 -3.14453125 1.90234375 C-1.05694289 1.18278393 -1.05694289 1.18278393 0 0 Z " fill="#052f4a" transform="translate(801,121)"/>
<path d="M0 0 C0.66 0.99 1.32 1.98 2 3 C0.37660195 4.70884005 -1.29319053 6.37446717 -3 8 C-3.66 8 -4.32 8 -5 8 C-5.66 9.32 -6.32 10.64 -7 12 C-7.99 12 -8.98 12 -10 12 C-6.7 8.04 -3.4 4.08 0 0 Z " fill="#052f4a" transform="translate(654,444)"/>
<path d="M0 0 C0.33 0.66 0.66 1.32 1 2 C-0.09346881 3.34212062 -1.2001575 4.67347975 -2.3125 6 C-3.23482422 7.11375 -3.23482422 7.11375 -4.17578125 8.25 C-6 10 -6 10 -9 10 C-7.8758824 8.70756532 -6.75067408 7.41607925 -5.625 6.125 C-4.99851562 5.40570312 -4.37203125 4.68640625 -3.7265625 3.9453125 C-2.52573166 2.5923402 -1.2791655 1.2791655 0 0 Z " fill="#052f4a" transform="translate(885,844)"/>
<path d="M0 0 C0.99 0 1.98 0 3 0 C2.67 2.64 2.34 5.28 2 8 C1.01 8.33 0.02 8.66 -1 9 C-0.67 6.03 -0.34 3.06 0 0 Z " fill="#052f4a" transform="translate(738,51)"/>
<path d="M0 0 C-1.98 0.99 -1.98 0.99 -4 2 C-3.67 2.66 -3.34 3.32 -3 4 C-5.31 4 -7.62 4 -10 4 C-10 3.01 -10 2.02 -10 1 C-6.61981469 -0.04005702 -3.5219721 -0.08004482 0 0 Z " fill="#052f4a" transform="translate(682,121)"/>
<path d="M0 0 C0 4.28535967 -2.2516278 5.84942699 -5 9 C-5.33 9.66 -5.66 10.32 -6 11 C-6.99 10.67 -7.98 10.34 -9 10 C-7.8758824 8.70756532 -6.75067408 7.41607925 -5.625 6.125 C-4.99851562 5.40570312 -4.37203125 4.68640625 -3.7265625 3.9453125 C-2.52573166 2.5923402 -1.2791655 1.2791655 0 0 Z " fill="#052f4a" transform="translate(505,840)"/>
<path d="M0 0 C0.33 0.99 0.66 1.98 1 3 C-3.82142857 8.22321429 -3.82142857 8.22321429 -8 9 C-7.04270084 7.87411986 -6.08412105 6.7493285 -5.125 5.625 C-4.59132813 4.99851562 -4.05765625 4.37203125 -3.5078125 3.7265625 C-2.38567993 2.44163349 -1.20628025 1.20628025 0 0 Z " fill="#052f4a" transform="translate(401,840)"/>
<path d="M0 0 C0.66 0.33 1.32 0.66 2 1 C-0.64 3.97 -3.28 6.94 -6 10 C-6.66 9.67 -7.32 9.34 -8 9 C-5.36 6.03 -2.72 3.06 0 0 Z " fill="#052563" transform="translate(869,862)"/>
<path d="M0 0 C0.598125 0.226875 1.19625 0.45375 1.8125 0.6875 C0.8225 0.6875 -0.1675 0.6875 -1.1875 0.6875 C-1.435 1.30625 -1.6825 1.925 -1.9375 2.5625 C-3.39378639 5.03818687 -4.56562506 5.63875002 -7.1875 6.6875 C-3.9375 -0.5625 -3.9375 -0.5625 0 0 Z " fill="#052f4a" transform="translate(580.1875,636.3125)"/>
<path d="M0 0 C0.99 0.33 1.98 0.66 3 1 C0.03 3.475 0.03 3.475 -3 6 C-3.66 5.67 -4.32 5.34 -5 5 C-3.35 3.35 -1.7 1.7 0 0 Z " fill="#052f4a" transform="translate(612,493)"/>
</svg>